<?xml version="1.0" encoding="UTF-8"?>
<svg version="1.1" xmlns="http://www.w3.org/2000/svg" width="16" height="16">
<path d="M0 0 C2.5 1.5 2.5 1.5 4 4 C4.791013 8.02098277 4.62153384 10.96411027 2.5 14.5 C-1.03588973 16.62153384 -3.97901723 16.791013 -8 16 C-10.5 14.5 -10.5 14.5 -12 12 C-12.791013 7.97901723 -12.62153384 5.03588973 -10.5 1.5 C-6.96411027 -0.62153384 -4.02098277 -0.791013 0 0 Z M-8.875 3.125 C-10.4682099 5.78034983 -10.20214032 7.96789518 -10 11 C-9.0925 10.21625 -8.185 9.4325 -7.25 8.625 C-4.94809764 6.69947504 -2.78422793 5.17794259 0 4 C-0.33 3.34 -0.66 2.68 -1 2 C-5.12587749 1.66482489 -5.12587749 1.66482489 -8.875 3.125 Z M1 5 C-0.1446875 6.175625 -0.1446875 6.175625 -1.3125 7.375 C-3.58290006 9.59260006 -5.12099298 10.82707121 -8 12 C-7.67 12.66 -7.34 13.32 -7 14 C-2.87412251 14.33517511 -2.87412251 14.33517511 0.875 12.875 C2.4682099 10.21965017 2.20214032 8.03210482 2 5 C1.67 5 1.34 5 1 5 Z " fill="#000000" transform="translate(12,0)"/>
</svg>
