<?xml version="1.0" standalone="no"?>
<!DOCTYPE svg PUBLIC "-//W3C//DTD SVG 20010904//EN"
 "http://www.w3.org/TR/2001/REC-SVG-20010904/DTD/svg10.dtd">
<svg version="1.0" xmlns="http://www.w3.org/2000/svg"
 width="180.000000pt" height="180.000000pt" viewBox="0 0 180.000000 180.000000"
 preserveAspectRatio="xMidYMid meet">

<g transform="translate(0.000000,180.000000) scale(0.100000,-0.100000)"
fill="#000000" stroke="none">
<path d="M702 1761 c-333 -82 -592 -345 -666 -678 -21 -94 -21 -272 0 -366 75
-338 343 -606 681 -681 94 -21 272 -21 366 0 338 75 606 343 681 681 21 94 21
272 0 366 -75 338 -343 606 -681 681 -98 22 -285 20 -381 -3z m358 -103 c128
-24 280 -106 383 -206 102 -100 188 -257 217 -396 16 -76 16 -236 0 -312 -41
-197 -170 -385 -340 -493 -138 -88 -258 -123 -420 -123 -162 0 -282 35 -420
123 -170 108 -299 296 -340 493 -16 76 -16 236 0 312 41 198 172 387 345 496
175 111 364 146 575 106z"/>
<path d="M1095 1177 l-319 -102 -202 -275 c-112 -151 -202 -276 -200 -277 1
-1 123 36 271 83 149 47 294 93 324 103 l55 16 171 232 c226 306 238 323 228
323 -4 -1 -152 -47 -328 -103z m-116 -198 c26 -25 31 -39 31 -76 0 -38 -5 -50
-34 -79 -24 -24 -43 -34 -65 -34 -68 0 -121 53 -121 121 0 22 10 41 34 65 29
29 41 34 79 34 37 0 51 -5 76 -31z"/>
</g>
</svg>
